# xmcd
#
# Track frame offsets:
#	150
#	72737
#	150800
#	180350
#	235675
#
# Disc length: 4054 seconds
#
# Revision: 1
# Processed by: cddbd v1.5.1PL0 Copyright (c) Steve Scherf et al.
# Submitted via: CDex 1.50Beta5
#
DISCID=310fd405
DTITLE=Furtwangler/Vienna Philharmonic Orchestra - Furtwangler Best Selection
DYEAR=1900
DGENRE=Classical
TTITLE0=交響曲第3番変ロ長調Op.55「英雄」第1楽章
TTITLE1=交響曲第3番変ロ長調Op.55「英雄」第2楽章
TTITLE2=交響曲第3番変ロ長調Op.55「英雄」第3楽章
TTITLE3=交響曲第3番変ロ長調Op.55「英雄」第4楽章
TTITLE4=「レオノーレ」序曲第3番Op72a
EXTD=
EXTT0=
EXTT1=
EXTT2=
EXTT3=
EXTT4=
PLAYORDER=
